<?xml version="1.0" encoding="utf-8"?>
<!-- Generator: Adobe Illustrator 22.0.1, SVG Export Plug-In . SVG Version: 6.00 Build 0)  -->
<svg version="1.1"
	 id="svg7763" inkscape:version="0.91 r13725" sodipodi:docname="MacaqueMarkoMapDualResults.svg" xmlns:cc="http://creativecommons.org/ns#" xmlns:dc="http://purl.org/dc/elements/1.1/" xmlns:inkscape="http://www.inkscape.org/namespaces/inkscape" xmlns:rdf="http://www.w3.org/1999/02/22-rdf-syntax-ns#" xmlns:sodipodi="http://sodipodi.sourceforge.net/DTD/sodipodi-0.dtd" xmlns:svg="http://www.w3.org/2000/svg"
	 xmlns="http://www.w3.org/2000/svg" xmlns:xlink="http://www.w3.org/1999/xlink" x="0px" y="0px" viewBox="0 0 283.5 283.5"
	 style="enable-background:new 0 0 283.5 283.5;" xml:space="preserve">
<style type="text/css">
	.st0{fill:none;stroke:#000000;stroke-width:2.6371;}
	.st1{fill:#008080;}
	.st2{fill:#800080;}
	.st3{fill:#AAAA96;}
	.st4{font-family:'ArialMT';}
	.st5{font-size:11.1343px;}
	.st6{fill:#AAAAAA;}
	.st7{fill:none;stroke:#AAAAAA;stroke-width:1.3918;}
</style>
<g id="layer1" transform="translate(0,-698.03155)" inkscape:groupmode="layer" inkscape:label="Layer 1">
	<path id="path3785-6" inkscape:connector-curvature="0" sodipodi:nodetypes="ccccc" class="st0" d="M221.4,864.7
		c-4,10.5,2.6,13.4-4,16.7c-8.8,4.8-22.7,18.6-11.6,32c7.2,9.3,39.1,5.5,38.5,23.2c-0.1,0.9-0.1,2.4-0.1,2.7"/>
	<path id="path3803-2" inkscape:connector-curvature="0" sodipodi:nodetypes="cccc" class="st0" d="M155.7,923.3
		c-4.5-5-5.5-2.6-7,1.6c-4.7,11.3-18.3,18.3-18.9,24.3c-3.6,21.8,33.6-10.2,44.7-9.1"/>
	<path id="path3839-0" inkscape:connector-curvature="0" sodipodi:nodetypes="ccsccccc" class="st0" d="M114,943.1
		c-3.1,2.6-4.3,6.5-10.7,6.7c-0.3-0.1-0.2-0.2-0.2-0.4c0-0.1,0-0.2,0-0.2c1.7-3.3,2.5-4.5,2.4-10.2c0.3-3.2,0.1-7,3.6-8
		c20.1-5,18-15,21.4-15.8c3.2-1.1,1.9,6.3,3.1,7.7"/>
	<path id="path3831-1" inkscape:connector-curvature="0" sodipodi:nodetypes="ccc" class="st0" d="M160.7,892.3
		c-12.3,0.9-20.3,13.8-24.9,25.5c-3,9.3-11.5,16.8-7.9,19.4"/>
	<path id="path3825-1" inkscape:connector-curvature="0" sodipodi:nodetypes="ccc" class="st0" d="M186.8,880c-0.8-0.3-1-1-1.9-0.3
		c-5.6,4.2-18.8,14.2-18.8,18.1"/>
	<path id="path2996-5" inkscape:connector-curvature="0" sodipodi:nodetypes="cccccccccccccccccccccccccc" class="st0" d="
		M233.7,937.7c-3.5-4.1-3.9-2.2-6.4-0.8c-15.7,10-38.1-3.7-59.9,8.5c-0.8,0.5-1.5,1.1-2.2,1.8c-1.2,1.6-2.6,1.8-4.2,2.7
		c-1.3,1-3.1,1.9-4.2,2.9c-3.1,2.5-5.7,5.4-8.7,7.8c-0.1,0.1-0.3,0.3-0.4,0.4c-4.1,4.8-7.4,4.8-15.6,8.2c-1.3,0.6-2.4,1-3.6,1.3
		c-1.3,0.6-2.5-0.5-3.6-0.4c-2.1,0-3.9,0.2-6.2,0.4c-3.1,0.4-5.8,0.9-8.9,0.9c-1.7,0.2-3.3,0.2-5.1,0.2c-39.8,0.4,5.9-31.9-14-47.2
		c-10.5-7.7-14.3-9.1-29.6-13.1c-11.6-3.6-38.8-11.7-24.5-26.1c5.3-6.6,9.9-8.2,14.5-12.7c10-8.9,14.1-11.2,21.4-13.4
		c34-12.6,63.2-4.9,92.4-9.6c5.5-1.1,11,1.3,15.4,1.3c7.7,0.9,13.5-0.5,20.5,7.6c5.3,6.8,8.8,18.1,14.7,16.3c5.2-1.3-1.3-13.6,8-9.8
		c48.1,19.1,31.6,74.4,16,76.1c-3.5,0.3-4-1.6-5.8-3.6"/>
	<path id="path3787-8" inkscape:connector-curvature="0" sodipodi:nodetypes="ccccccc" class="st0" d="M214.8,875.4
		c0.1,3.3-0.7,6.3-4.1,8.3c-1.6,0.7-3.1,1.3-4.2,3c-16.3,24.2-12.4,21.6-8.6,34.1c30.9,0.9,31.7,8.3,39.3,19.8v0.1
		c0.1,0.1,0.1,0.1,0.2,0.1"/>
	<path id="path3791-6" inkscape:connector-curvature="0" sodipodi:nodetypes="ccccccccc" class="st0" d="M97.8,931.1
		c13.1-10.2,28.4-14.6,36.8-23l0,0c0.2-20.8,60.2-26.9,43.8-33.4c-19.6,0.4-35.9,13.6-49.4,28.7c-5.9,5.9-21,10.8-25.2,11
		c-3.3-0.7-6,0.7-9.1,0.6c-3.2-0.3-5.5,0.1-9.8,0.6c-4,0.6-2.3,1.2-4.7,2.1"/>
	<path id="path3793-6" inkscape:connector-curvature="0" sodipodi:nodetypes="cccc" class="st0" d="M205.2,937.6
		c2.5-0.7,7.5-0.4,7.4-2.5l0,0c-0.8-7.4-5.7-12.4-6.9-13.9"/>
	<path id="path3795-6" inkscape:connector-curvature="0" sodipodi:nodetypes="cccccccccccc" class="st0" d="M197.6,920.8
		c-10.5-1.4-7.8-15.3-5.1-23.1c1.4-1.4,4,2.3,4.5-2.9c-0.8-9.3,9.6-14.1,11.3-20.7c-4.4-2.2-7.2-5.5-12-6.9c-2.3-0.6-3.5,0.7-5.2,3
		c-0.1,3.1-0.5,2.4-0.9,3.5c-1,3.3-2.5,5.1-4.5,7.3c-5.3,7.1-13.2,11.7-19.7,16.5c0,0.1,0,0.8,0,0.9c0.6,2.4,1.1,4.4,1.1,7.1
		c16.4,21.1,31.3,20.4,38.4,32.2"/>
	<path id="path3797-9" inkscape:connector-curvature="0" sodipodi:nodetypes="cc" class="st0" d="M208.2,873.6
		c0.2-0.5,0.5-0.8,0.9-1.3"/>
	<path id="path3799-0" inkscape:connector-curvature="0" sodipodi:nodetypes="cc" class="st0" d="M195.8,866.8
		c-0.1-5.7,2.3-6.1,5.4-7.3"/>
	<path id="path3801-0" inkscape:connector-curvature="0" sodipodi:nodetypes="cccccc" class="st0" d="M167.2,905.7
		c-5.4,3.4-11.9,9.1-11.5,18.6c0,1,0,2.1,0,3.1c-1.8,15.4,17.2,4.4,19.1,13c0.1,0.6,0.5,0.6,0.7,0.9c0.1,0.1,0.2,0.1,0.2,0.2"/>
	<path id="path3809-3" inkscape:connector-curvature="0" sodipodi:nodetypes="cc" class="st0" d="M111.4,901.9
		c-4-1.2-7.2-5.7-6.6-7.2"/>
	<path id="path3811-2" inkscape:connector-curvature="0" sodipodi:nodetypes="cccc" class="st0" d="M123.2,856.4
		c-0.5-0.1-1.7-0.3-2.2-0.4c-0.2,0-2,0-2.2,0c-3.4,0.2-6.8,1.8-10.3,1.7"/>
	<path id="path3813-1" inkscape:connector-curvature="0" sodipodi:nodetypes="ccc" class="st0" d="M84.8,902.4
		c4.4-6.6,7.1-10.7,9.7-14.9c9.8-16.7-10.6-19.8-21.7-19.7"/>
	<path id="path3815-9" inkscape:connector-curvature="0" sodipodi:nodetypes="cc" class="st0" d="M42.7,889.5
		c10.7-13.1,30.4-6.9,40.3-11.3"/>
	<path id="path3817-7" inkscape:connector-curvature="0" sodipodi:nodetypes="ccccc" class="st0" d="M94.9,873.6
		c0.6-0.7,0.9-1.3,1.3-1.9c0.1-0.1,0.2-0.2,0.3-0.3c0.5-0.6,1-1.3,1.6-1.6c4.2-2.7,6.9-3.9,11.9-3.8"/>
	<path id="path3821-23" inkscape:connector-curvature="0" sodipodi:nodetypes="ccc" class="st0" d="M122,892.3
		c-3.9-21.8,8.6-26.3,20.5-34c0.9-0.6,2.2-1.1,3.3-1.7"/>
	<path id="path3823-4" inkscape:connector-curvature="0" sodipodi:nodetypes="ccccc" class="st0" d="M149.1,870.3
		c3.5-1.6,5.5-4.2,10.1-6l0,0c6-2.8,5.9-2.5,9.4-3.1c21-3.8,11.2-4.2,17.9-4.1"/>
	<path id="path3827-8" inkscape:connector-curvature="0" sodipodi:nodetypes="ccccccc" class="st0" d="M155.4,900.4
		c0.9-4,1.9-4.9,4-7c0.3-0.3,0.6-0.6,0.9-0.9c0.1-0.1,0.3-0.3,0.4-0.4c0.1-0.1,0.3-0.1,0.4-0.2c2.7-1.6,4.6-3.5,7.1-5.3
		c1.6-1.2,1.9-2.2,2.9-3.6"/>
	<path id="path3829-12" inkscape:connector-curvature="0" sodipodi:nodetypes="cccc" class="st0" d="M180.5,878.4
		c-9.1,6.8-14.6,18.9-23.1,23.5c-1.2,0.3-1.9,0-2-0.9c0-0.2-0.1-0.5,0-0.7"/>
	<path id="path3835-2" inkscape:connector-curvature="0" sodipodi:nodetypes="cccc" class="st0" d="M127.8,937
		c1.3,0.6,13.1-7.4,16.8-11.6c4.8-6.4,13.2-12.8,13.9-20.2c0.2-1.6-1.2-2.6-1.7-3.4"/>
	<path id="path3837-0" inkscape:connector-curvature="0" sodipodi:nodetypes="ccc" class="st0" d="M128.5,931.4
		c-7.3,6.1-14.6,3.8-14.6,11.5c4.1,2.8,10.3-3.2,13.4-6.2"/>
	<path id="path3841-6" inkscape:connector-curvature="0" sodipodi:nodetypes="ccccc" class="st0" d="M161.6,878.5
		c-1.8-5.2-2.9-7.4-6.9-7.4c-0.6,0-1.1,0-1.7,0c-5.3,0.3-7-0.3-10.7,3c-0.6,3,2.9,8.7,2.1,14.7"/>
	<path id="path3843-1" inkscape:connector-curvature="0" sodipodi:nodetypes="ccc" class="st0" d="M198.2,860.7c-0.1,0-1,0-1.2,0
		c-14.8-1-30.9,1.7-43.1,10.4"/>
	<path id="path3845-0" inkscape:connector-curvature="0" sodipodi:nodetypes="ccc" class="st0" d="M177,874.6
		c6.3-1,3.6-10.9,9.2-10.2c3.3,0.8,3.6,3.3,5.1,5.7"/>
	<path id="path3847-8" inkscape:connector-curvature="0" sodipodi:nodetypes="ccccc" class="st0" d="M142.3,874.1
		c-0.3-4.1,4.7-3.6,5.4-8.4c1.2-6.3,6.1-4.9,10.2-9.2c3.7-4.1,5.2-4.9,6.4-6.2c0.1-0.1,0.2-0.1,0.2-0.2"/>
	<path id="path3849-8" inkscape:connector-curvature="0" sodipodi:nodetypes="cccccccc" class="st0" d="M193.2,853
		c-0.2,0.2-1.4,1.5-1.6,1.7c-1,1-2.9,0.7-4.3,0.8c-2.2,0-2.6,0.3-3.8,0.3c-3.8,0.3-4.1,0.4-6.1,0.6c-10.9,1.3-13.4,3.9-18.6,6
		c-0.4,0.1-1.5,0.6-2.4,0.8c-5.9,1.2-6.7,2.4-9.7,5"/>
	<path id="path3851-7" inkscape:connector-curvature="0" sodipodi:nodetypes="ccccccccccc" class="st0" d="M104.2,914.1
		c-1.2-1.6-3.3-3.5,0.5-2.8c23.7-5.6,21.4-12.5,19.5-24.4c0-0.1,0-0.2,0-0.3c0-5.3,1.5-7.8,3-10.3c2.1-3,5.9-4.5,8.7-5.4
		c1.9-0.9,3.9-2.1,5.1-3.5c2.2-2.9,4.9-6.3,5.5-8.2c0.4-1.1,1.4-1.6,2.2-2.1c3-2.2,5.5-4.3,8.1-6c0.1-0.1,0.5-0.5,0.6-0.6"/>
	<path id="path3857-4" inkscape:connector-curvature="0" sodipodi:nodetypes="ccc" class="st0" d="M92.1,890.7
		c-7.2-0.1-7.4-7.9-7.5-12.1c-0.2-3.1,1.6-6.6,3.3-8.6"/>
	<path id="path3859-8" inkscape:connector-curvature="0" sodipodi:nodetypes="ccc" class="st0" d="M96.8,880.4
		c-3.7,0.9-9.2-0.4-12.3-1.9c0,0,0,0-0.1-0.1"/>
	<path id="path3861-4" inkscape:connector-curvature="0" sodipodi:nodetypes="ccc" class="st0" d="M81.7,916.6
		c2.2-10.2,14.3-13.5,22.1-16.3c0.3,3.7,0.7,7.6,0.2,10.7"/>
	<path id="path3865-3" inkscape:connector-curvature="0" sodipodi:nodetypes="cccc" class="st0" d="M107,869.3
		c-0.9,8.8-6.7,22.9-4,30.7l0.1,0.1L103,900"/>
	<path id="path3867-4" inkscape:connector-curvature="0" sodipodi:nodetypes="ccccc" class="st0" d="M83.1,912.6
		c1.2-3.2,1.7-5.2,3.3-7.7c5-10.8,13.7-21,15.6-31.5l0.1-0.1c1.4-2.3,2.9-3.9,4.8-3.7"/>
	<path id="path3873-3" inkscape:connector-curvature="0" sodipodi:nodetypes="cc" class="st0" d="M151,855.5
		c-0.2-1.5-1.1-2.7-1.8-4.4"/>
	<path id="path3875-5" inkscape:connector-curvature="0" sodipodi:nodetypes="ccccc" class="st0" d="M118.5,856.2
		c0-0.2,0.1-0.5,0.1-0.7s0-0.4,0-0.5c0.1-0.9,0-1.7-0.1-2.6c0-0.4,0-0.8,0-1.2"/>
	<path id="path3877-6" inkscape:connector-curvature="0" sodipodi:nodetypes="cccccc" class="st0" d="M118.5,856.3
		c-2.6,5.3-0.8,10.5-4.1,14.3c-1.5,2.2-2.9,4.4-3.8,6.4c-2.5,5.7-6.9,11.8-3.9,15.3c3.6,4.1,3.9-1.2,6.3-3.4c4.8-5.1,6.4-14,11-15.4
		"/>
	<path id="path3881-8" inkscape:connector-curvature="0" sodipodi:nodetypes="cccc" class="st0" d="M142.8,858.3
		c0.3,0,0.6,0.1,0.9,0.1c2.7,0.1,2.3-0.7,4.9-1.6c0,0,1.3-0.7,1.3-0.6"/>
	<path id="path3883-8" inkscape:connector-curvature="0" sodipodi:nodetypes="cc" class="st0" d="M88.2,867.2
		c-1.6-4-5.7-7.8-5.6-10.9"/>
	<path id="path3885-0" inkscape:connector-curvature="0" sodipodi:nodetypes="cccc" class="st0" d="M62.3,863.6
		c5.9,3.6,10,0.4,14.7,0.2c11.2,0.3,4.1,4,10.7,2.9c0.3,0,0.2,0,0,0"/>
	<path id="path3887-9" inkscape:connector-curvature="0" sodipodi:nodetypes="ccc" class="st0" d="M102.2,873.3
		c-4.1-0.9-3.9-1-6-1.6c-3-1.3-6.5-3.4-8.8-4.9"/>
	<path id="path3889-9" inkscape:connector-curvature="0" sodipodi:nodetypes="cc" class="st0" d="M106.9,869.7
		c7.8-3.4,6.5-10.4,10.4-10.8"/>
	<path id="path3891-7" inkscape:connector-curvature="0" sodipodi:nodetypes="cc" class="st0" d="M50.8,907.6
		c-7.5-8.2-14.3-20.9-13.4-23.8"/>
	<path id="path3895-3" inkscape:connector-curvature="0" sodipodi:nodetypes="ccccccc" class="st0" d="M82.4,878.3
		c0.1-0.6,0.2-1.1,0.2-1.7c0-0.7-0.1-0.9-0.1-1.1c-1.4-9.5-20.3-4.3-26.1-2c-2.7,1.1,2.2,2.6,4.3,3c3.6,0.5,7.1,0.7,10.7,1.1
		c4.9,0.3,6.7,1.3,10.5,1.3"/>
	<path id="path3897-5" inkscape:connector-curvature="0" sodipodi:nodetypes="cc" class="st0" d="M44.7,887.2
		c-16.2-2.2,18.4-10.7,16.5-10.6"/>
	<path id="path3899-1" inkscape:connector-curvature="0" sodipodi:nodetypes="cccc" class="st0" d="M64.8,871
		c-0.1-0.1-0.9-0.8-1-0.9c-1.6-1.8-2.2-2.9-4.8-3.3l-0.1-0.1"/>
	<path id="path3901-4" inkscape:connector-curvature="0" sodipodi:nodetypes="cc" class="st0" d="M96.5,876.2c1.8-0.4,3.2-2,4.1-3.4
		"/>
	<path id="path3903-5" inkscape:connector-curvature="0" sodipodi:nodetypes="cc" class="st0" d="M79.2,871c1.6-0.8,4.1-2,6-2"/>
	<path id="path3905-3" inkscape:connector-curvature="0" sodipodi:nodetypes="ccc" class="st0" d="M82.9,877.6
		c-1.6,4.1-3.1,13-11.3,13.1c-35.4-2.1,2.4-8.2,10.5-11.4"/>
	<path id="path4000-8" inkscape:connector-curvature="0" sodipodi:nodetypes="ccccccccccccsccccccccccccccccc" class="st0" d="
		M61.7,777.1c-33,12.5-35.1,20.7-20.9,36.1c9.4,9.5,26.5,23.6,40.6,24.8c0.6,0,1.1,0,1.7,0c14.2,3.2,24,7.7,34.6,7.7
		c0.1,0,0.6,0,0.7,0c9.7-1.7,21.4,7,29.2,2.3c8.8-7.3,16.3,0,18.5-2.3c2.2-2,5.2-1.6,7.6-1.5c7.1,0.1,19.6-1.8,23.5-7.7
		c6.6-4.7,11.3-11.9,15.4-18.1c0.1,0,0,0.4,0,0.4c0.2,0.1,1,1.1,1.2,1.3c0.5,0.5,0.9,1,1.4,1.5c3.1,4.2-0.6,6.9,4.3,7.7
		c18.8,1.8,23.7-27.9,30.4-43c4.3-7.2,3.5-25.7-2.4-33.8c-1.7-2.2-3.2-3.2-5.9-4.6c-1.6-0.8-5.1,0.9-7.1,2.3
		c-1.1,0.9-1.1,1.2-1.7,1.8c-0.1,0.1-0.6,0.7-0.7,0.8c-2.6,2.6-6.8-2.9-10.2-4.1c-10.3-1.8-21.1,3.1-29.9,3.3
		c-3,0.2-6.2-0.3-8.5-1.8c-3.5-2.1-6.1-2.4-8.5-3.8c-3.3-1.7-6.7-4.7-9.7-7.2c-10.9-8.8-27.5-22.4-41.7-24.3
		c-31.4-4.2-30.6,4.6-27.5,39.4C96,767.7,74.2,772.3,61.7,777.1L61.7,777.1z"/>
	<path id="path4510-7" inkscape:connector-curvature="0" sodipodi:nodetypes="cc" class="st0" d="M39.7,812.1
		c0.6-12.2,10.9-26.6,18.7-33.8"/>
	<path id="path4512-7" inkscape:connector-curvature="0" sodipodi:nodetypes="cccc" class="st0" d="M82.1,813.7
		c0.3,2.7,0.1,4.9-0.7,6.9c-13.4-5.4-42.1-11.6-26.6-18C61.6,799.9,76.9,811.4,82.1,813.7z"/>
	<path id="path4514-0" inkscape:connector-curvature="0" sodipodi:nodetypes="cccccccsccsccccsccc" class="st0" d="M153.7,821.1
		c10.7,3.4,14.6,13.6,22.5,18.4c4.2-1.8,6.7-3.1,11.4-3.1c0.2,0,1.5,0,1.7,0c2.5-0.1,1.7-1,3.8-1c0.1,0,0.9,0,0.9,0
		c0.1-0.1,0.1-0.2,0.2-0.3c0.1,0,0.2,0.1,0.2,0s-0.3,0.1-0.2,0c0.3-0.3,0.5-0.1,0.7-0.5c0-0.1,0-0.2,0-0.3c0-0.2,0-1.4,0-1.5
		c0-0.3,1.7-2.8,3.6-4.9c0.2-0.2,0.6-0.5,0.7-0.8c13.8-16.9,11.4-25.4-0.2-25.8c-2.5,0-4.9,0-7.4,0c-0.7,0-1.4,0-2.1,0
		c-4.2-0.3-9.9,15.2-14.5,20.7C159.8,819.1,155,808.8,153.7,821.1L153.7,821.1z"/>
	<path id="path4516-7" inkscape:connector-curvature="0" sodipodi:nodetypes="cccccc" class="st0" d="M215.6,821.7
		c2.8-23.9,7.4-35.6-2.4-44.4c1.4,0,3,0,4.3,0c1.9,0,3.1,1.2,5,0.8c14.3-3.8,12.1-18.1,18.3-26.9c1-0.8,1.1-1.6,1.2-2.7"/>
	<path id="path4518-3" inkscape:connector-curvature="0" sodipodi:nodetypes="cccccccccccccccccccccccsc" class="st0" d="
		M213.3,819.5c-2-4.6-0.6-11,0.8-15.4c0.7-3.1,1-6.5,1.3-9.5c0.2-4-1.6-6.5-6.3-6.5c-1,0-1.8-0.2-3.1,0c-1.8,0.2-3.8,0.8-5.1,2.9
		c-1,1.5-2.2,3.4-3.3,3c-13-4.8-12.6-20-17.4-23.7c-2.8-2.1-6.1-3.6-8.4-5.6c-0.5-0.4-1.6-1.1-2.4-1.6c-0.9-0.5-1.6-1.1-2.5-1.9
		c-0.6-0.6-0.8-1.2-0.4-1.7c0-0.1,0.4-0.5,0.5-0.5c0.3-0.2,0.6-0.2,1.2-0.1c11.2,2,22,6.1,31.4,6.4c1.4-0.1,2.4-0.4,3.8-0.5
		c4.1-1.7,6.3-3.4,8.9-1.7c7.4,4.9,5.6-1.1,1.1-5.4c-1.9-2.6,3.9-5.6,5.8-7.6V750c0.3-0.4,0.7-0.8,1.1-1.2h0.1
		c0.1,0,0.1-0.1,0.1-0.1h0.1h0.1"/>
	<path id="path4520-1" inkscape:connector-curvature="0" sodipodi:nodetypes="ccccsssccscccc" class="st0" d="M118.8,845.7
		c-0.9-2.2-2.2-5.8-2.8-9.3c0-0.7,0-1.4,0-2c-0.3-5.5,3.5-11.3,9-11.5c1.7,0,3.5,0,5.2,0c1.3,0,2.7,0,4,0c0.4,0,0.8,0,1.2,0
		c0.2,0,0.6,0,0.7,0c1.7-0.6-0.4,0.1,0.7-0.5c0.1,0,0.2,0,0.2,0c0.1,0,0.2,0,0.2,0c0.1,0.1,0.2,0.1,0.2,0.3
		c-3.7,21.7,12.9,9,9.6,25.3c0,0.1,0,0.2,0,0.2"/>
	<path id="path4522-9" inkscape:connector-curvature="0" sodipodi:nodetypes="cccc" class="st0" d="M83.3,838
		c-0.3-1.1-0.2-0.7-0.2-1.3c1.1-9.9,22.7,1,32.6-0.8c0.1-0.1,0.3-0.2,0.2-0.3"/>
	<path id="path4524-1" inkscape:connector-curvature="0" sodipodi:nodetypes="cc" class="st0" d="M174,844c1.4-2.5,0.5-3.8,2.3-4.6"
		/>
	<path id="path4526-0" inkscape:connector-curvature="0" sodipodi:nodetypes="cc" class="st0" d="M194.3,835.2
		c0.9,0,1.5,0.8,2.3,1.3"/>
	<path id="path4528-6" inkscape:connector-curvature="0" sodipodi:nodetypes="ccccc" class="st0" d="M68.4,811.9
		c23.3,6.4,30.3,8.6,51,8.6c1.7,0,3.4,0,5,0c17.2-0.7,24.8-2.9,34.9-0.7c12.5,1.3,14.4,12.7,20.4,15.5"/>
	<path id="path4530-7" inkscape:connector-curvature="0" sodipodi:nodetypes="ccc" class="st0" d="M177.7,806.4c1.9-1,1.6-3,3-5.6
		c1.4-3.1,4.7-7.2,5-7.8"/>
	<path id="path4532-0" inkscape:connector-curvature="0" sodipodi:nodetypes="ccccc" class="st0" d="M89.7,764.9
		c3,26.1-44.4,33.8,3,41.5c23.9,4.1,82.6,17.7,82.6-25.2c-6.6-19.7-52.2-50.2-61.5-53.3c-9.1-2.5-18.7,4.6-19.4,6.8"/>
	<path id="V1-1" inkscape:connector-curvature="0" class="st1" d="M244.9,935.7c0-3.5-2-7.2-5-9.5c-3.2-2.3-6.4-3.6-16.7-6.3
		c-9.3-2.5-12.2-3.5-14.6-5c-2.9-2-5.5-6.4-6.1-10.3c-1.1-7.3,4.5-16.1,14.3-22.2c4.3-2.7,4.2-2.3,4.1-8.1c-0.1-4.5,0.1-6.5,0.8-8.4
		l0.3-0.8l1.6,0.6c11.9,4.6,21.7,13.4,26.6,23.7c2.7,5.7,4,11.1,4.2,18.1c0.2,6.8-0.5,12.1-2.6,18c-1.6,4.5-4.3,9.3-6.2,11l-0.6,0.6
		v-1.4H244.9z"/>
	<path id="V1-2" inkscape:connector-curvature="0" sodipodi:nodetypes="csscssssssssc" class="st1" d="M218.6,828.5
		c-2-1.3-2.7-6.6-0.8-21c2-16.2,2.5-23-1.1-27.5l-1.7-2.2l3.1,0.6c8.5,1.6,14.7-3.3,18.6-14.8c2.5-7.3,5.7-14.1,6.7-14.1
		c0.9,0,3.9,3.8,5.2,6.5c3.4,6.8,4.7,20.1,2.2,27.2c-0.9,2.4-4,8.8-5.9,14.1c-4.5,12.5-8.1,21.3-11.4,25.2
		C229.3,827,221.3,830.3,218.6,828.5L218.6,828.5z"/>
	<path id="V2-2" inkscape:connector-curvature="0" sodipodi:nodetypes="csssssscssccsscssssssssscc" class="st1" d="M214,818.7
		c-1-1-1.2-7,0.1-13.3c2.8-13.3,1.9-17.8-6.4-17.8c-4.2,0-5.1,1.5-7.3,4c-3,3.4-4.3,2.4-9-2.3c-2.2-2.2-4-6.1-5.8-10.4
		c-2.9-7.2-4.8-8.4-13.1-14c-3.7-2.5-6.2-4.8-5.2-5c0.8-0.2,7.8,1.4,13.6,2.8c14.2,3.5,20.3,4,24.5,2.3c4-1.7,5-2.2,8-0.7
		c1.7,0.9,3.3,1.5,4,0.9c1.2-1-0.2-3.3-2.5-6.6c-1.9-2.8-0.4-3.5,3.5-6.4l2.8-3l4.3,3c3.8,2.6,7.8,2.3,7.8,0.3c0-1,5.7-3.9,7.5-3.9
		c1,0,0.1,1.4-1.4,4.3c-1.1,2-2.8,6.1-3.8,9.2c-2.2,6.8-3.9,10.3-7.8,13c-2.6,1.8-2.6,2.7-7.7,2.2c-6.4-0.6-7.9-0.9-4.6,3.1
		c3.8,4.5,3.8,8,2.2,22.5c-1.5,13.3-2.2,18.5-3.2,17.4L214,818.7z"/>
	<path id="V2-1" inkscape:connector-curvature="0" class="st1" d="M238.3,940.5c-0.8-0.1-0.6,0.1-1.9-1.9c-0.6-1-1.6-2.6-2.2-3.5
		c-1.9-3-3.1-4.5-4.6-6.1c-1.7-1.7-3.1-2.8-5.3-3.9c-5-2.6-12.5-4.1-22.9-4.6c-1,0-2.1-0.1-2.4-0.1h-0.7l-0.3-0.8
		c-0.2-0.5-0.7-2-1.2-3.3c-1.5-4-1.7-4.9-1.8-6.5c0-1.1,0.1-1.7,0.4-2.9c0.9-3.3,3.9-8.5,10.3-18.1c1.9-2.8,2.1-3.1,4.4-4.2
		c1.7-0.9,2.6-1.5,3.4-2.7c1.1-1.4,1.6-3,1.6-5.1v-1.1l0.4-0.1c1.1-0.3,1.9-1.1,2.3-2.3c0.3-0.8,0.4-1.9,0.5-3.8
		c0.1-1.9,0.2-2.4,0.4-3.1c0.3-0.9,0.8-1.2,1.8-1.2c0.2,0,0.4,0,0.4,0s-0.1,0.3-0.2,0.7c-1,3.2-1.2,5.7-0.7,9.6
		c0.3,2.7,0.2,3.4-0.8,4.4c-0.5,0.5-0.8,0.7-2.1,1.4c-3.2,1.8-5.5,3.5-7.9,5.9c-4.4,4.3-6.9,8.7-7.7,13.5c-0.2,1.1-0.2,3.5,0,4.6
		c0.4,2.5,1.3,4.6,2.7,6.7c0.7,1,1.9,2.5,2.4,3c2,1.8,4.9,3.1,9.6,4.5c0.9,0.3,3.6,1,5.9,1.5c6,1.5,7.7,2,9.8,2.7
		c6.4,2.2,10.1,5,11.4,8.9c0.5,1.4,0.6,2,0.6,4.1c0,1.6,0,2-0.1,2.1c-0.2,0.2-1.3,1-1.9,1.3c-0.8,0.4-1.8,0.7-2.6,0.8
		c-0.4,0-0.7,0.1-0.7,0.1C238.5,940.5,238.4,940.5,238.3,940.5L238.3,940.5L238.3,940.5z"/>
	<path id="DP" inkscape:connector-curvature="0" class="st1" d="M206.2,872.2c-0.8-0.5-2.2-1.5-3.1-2.1c-2.1-1.5-3.8-2.4-5.4-3
		l-1.3-0.5v-1.5c0-2.4,0.9-3.6,3.1-4.6l1.2-0.6l0.5,0.6c0.3,0.3,1.6,2.4,2.9,4.6s2.8,4.7,3.4,5.5c1,1.4,1,1.5,0.7,2
		c-0.2,0.3-0.4,0.5-0.5,0.5C207.7,873.2,207,872.7,206.2,872.2L206.2,872.2L206.2,872.2z"/>
	<path id="MT" inkscape:connector-curvature="0" class="st1" d="M167.6,895.6c0-0.1,1.1-1.4,2.5-2.8c2.7-2.8,6.7-6.2,11.8-10.2
		c4.3-3.3,4.7-3.4,2.6-0.9c-2.9,3.6-6,6.3-12.2,10.7C167.6,895.8,167.6,895.8,167.6,895.6L167.6,895.6z"/>
	<path id="7A" inkscape:connector-curvature="0" class="st1" d="M161.5,876.8c-0.1-0.3-0.4-1-0.5-1.4c-0.8-2.3-2.5-4.1-4.3-4.6
		l-1.1-0.3l1.8-1.1c7.9-4.7,17.4-7.5,28-8.3c3.5-0.2,7.9-0.3,9.9-0.1l1.4,0.1l-0.5,1c-0.3,0.5-0.6,1.7-0.8,2.7l-0.2,1.7l-0.9,0.2
		c-0.6,0.2-1.2,0.6-1.9,1.3l-1.1,1l-0.8-1.6c-1.3-2.5-2.9-3.6-4.9-3.6c-1.7,0-2.9,1.1-3.8,3.4c-0.2,0.6-0.7,1.8-1,2.7
		c-1.1,3-2.3,3.9-5.6,4.2c-4.4,0.4-9.1,1.5-13.2,3.1C161.8,877.4,161.7,877.2,161.5,876.8L161.5,876.8L161.5,876.8z"/>
	<path id="7B" inkscape:connector-curvature="0" class="st1" d="M145,886.2c-0.1-0.5-0.2-1.4-0.2-2c-0.1-0.6-0.6-2.7-1.1-4.7
		c-1.2-4.9-1.2-5,0.1-6c1.8-1.3,2.8-1.6,6.6-1.8c5.2-0.3,7,0,8.2,1.6c0.6,0.8,2,3.8,2,4.3c0,0.2-0.9,0.7-2,1.2
		c-3.8,1.8-8.3,4.5-12.4,7.4l-1.2,0.9L145,886.2L145,886.2L145,886.2z"/>
	<path id="F5" inkscape:connector-curvature="0" class="st1" d="M85,908.8c0.4-1.2,5.6-10.8,8.5-15.8c5-8.4,7.3-13.1,8.4-17.3
		c0.7-2.6,1.9-4.5,3.3-5.2c0.8-0.4,1-0.4,1,0.3s-1,5.4-2,9.7c-2.2,9-2.8,14-2.2,17.6c0.4,2.3,0.4,2.2-0.9,2.6
		c-7.8,2.7-11.5,4.6-14.9,7.4C85.2,909.1,84.9,909.2,85,908.8L85,908.8L85,908.8z"/>
	<path id="ProM" inkscape:connector-curvature="0" class="st1" d="M82.6,915.2c0-0.5,0.7-1.9,1.6-3.2c2.6-4,7.2-6.8,16.3-10
		c1.4-0.5,2.7-0.9,2.7-0.8c0.2,0.2,0.5,7.2,0.4,8.4c-0.1,1.1-0.2,1.2-0.6,1.2c-1.1,0-1.2,0.8-0.4,2c0.3,0.4,0.5,0.8,0.5,0.8
		s-0.8,0.1-1.7,0.1c-1,0-2.6,0.2-3.6,0.4c-1.1,0.2-3.1,0.3-4.7,0.3c-2.5,0-8.4,0.6-9.9,1C82.8,915.4,82.6,915.3,82.6,915.2
		L82.6,915.2z"/>
	<path id="8l" inkscape:connector-curvature="0" class="st1" d="M90.7,890.1c-2.1-0.4-3.7-1.9-4.5-4c-0.6-1.5-1-4-1-5.5v-1.2
		l1.5,0.5c2.3,0.8,4.9,1.2,7.4,1.2c1.2,0,2.3,0.1,2.3,0.2c0,0.5-1,3.2-1.5,4.3c-0.9,1.9-2.8,4.7-3,4.7
		C91.7,890.2,91.2,890.1,90.7,890.1L90.7,890.1z"/>
	<path id="946v" inkscape:connector-curvature="0" class="st1" d="M67.9,889.9c-6-0.5-10.5-1.5-10.5-2.2c0-0.5,2.7-1.8,6.1-2.8
		c1-0.3,5-1.4,9-2.4c3.9-1,7.4-2,7.8-2.1c0.3-0.1,0.7-0.2,0.7-0.1c0.2,0.2-1,3.4-1.7,4.9c-0.9,1.8-2.3,3.4-3.9,4.2
		c-1.1,0.6-1.4,0.6-3.9,0.7C70,890,68.4,890,67.9,889.9L67.9,889.9z"/>
	<path id="TEpd" inkscape:connector-curvature="0" class="st1" d="M132.7,956.1c-1.9-0.5-2.5-1.6-2.5-4.7c0-2.5,0.3-3.6,1.4-5.3
		c0.4-0.5,3.3-3.6,6.5-6.9c7.4-7.5,9.2-9.9,11.2-14.7c1-2.5,1.3-2.9,1.9-3.4c0.7-0.5,1.3-0.2,2.8,1.2l1.2,1.1l-0.1,3.2
		c-0.1,3.7,0.1,5.3,0.9,6.7c1.3,2.5,3.3,3.2,9.7,3.6c2.5,0.2,4.8,0.4,5.2,0.5c1.5,0.5,2.8,1.4,2.8,2c0,0.1-0.3,0.1-0.7,0.1
		c-1.1,0-3.9,0.9-6.8,2.1c-1.4,0.6-6.4,3.1-11.2,5.6c-11,5.8-14.4,7.4-17.7,8.3C135.6,956.2,133.6,956.4,132.7,956.1L132.7,956.1
		L132.7,956.1z"/>
	<path id="V4" inkscape:connector-curvature="0" class="st1" d="M205.3,936.4c-0.7-1.2-2.8-3.5-4.4-4.8c-2-1.7-3.2-2.5-8.7-5.8
		c-2.6-1.5-5.6-3.4-6.7-4.2c-5.8-3.8-11.7-9-16.3-14.6l-1.5-1.8l-0.1-1.6c-0.1-0.9-0.3-2.6-0.6-3.7c-0.3-1.2-0.4-2.2-0.4-2.2
		c0.1,0,2.2-1.6,4.8-3.4c5.7-4,8.5-6.3,10.7-8.5c2-2,5.8-6.5,6.8-8c1-1.6,2.4-4.9,2.7-6.3c0.3-1.4,1-2.5,2.2-3.4
		c1-0.7,2.1-0.7,3.8,0s2.5,1.1,6.4,3.8c1.8,1.2,3.4,2.2,3.5,2.3c0.7,0.2-1,3-4.3,6.9c-5.3,6.1-6.2,8-6.6,12.6
		c-0.3,3.3-0.3,3.4-2.5,3.4h-1.7l-0.4,0.7c-0.6,1.3-1.8,6.3-2.2,9.2c-0.5,4.1-0.2,6.9,1,9.5c1.1,2.3,3.1,3.9,5.6,4.5
		c0.6,0.1,2.9,0.3,5.1,0.5l4,0.2l0.5,0.7c3.6,4.6,5.7,8.9,6,12.3c0.1,1.2-0.5,1.5-3.2,1.9c-1.2,0.2-2.4,0.4-2.6,0.4
		C205.8,937,205.6,936.9,205.3,936.4L205.3,936.4L205.3,936.4z"/>
	<path id="path5923" inkscape:connector-curvature="0" class="st0" d="M205.5,937.6l0.3,2.9"/>
	<path id="TEO" inkscape:connector-curvature="0" class="st1" d="M175.6,940.8c-0.2-0.2-0.5-0.6-0.6-1.1c-0.1-0.4-0.5-1.1-0.9-1.5
		c-1.3-1.5-2.8-1.9-7.9-2.2c-2.1-0.1-4.3-0.3-4.9-0.4c-2.7-0.5-4.4-1.8-5-3.9c-0.5-1.8-0.3-10.3,0.3-12.5c0.9-3.3,2.7-6.3,5.7-9.1
		c1.5-1.4,4.5-3.8,4.9-3.8c0.1,0,0.5,0.5,1.1,1.2c2.7,3.5,8,8.7,11.8,11.6c3,2.3,6.5,4.6,13.6,8.8c3.8,2.2,6.2,4,8.1,5.9
		c2.3,2.2,3.2,3.7,3.3,5l0.1,1.1l-2.3-0.1c-8.9-0.5-13.2-0.6-16.4-0.4c-4.2,0.3-7.2,0.8-10.3,1.6C176.1,941.1,175.8,941,175.6,940.8
		L175.6,940.8L175.6,940.8z"/>
	<path id="2" inkscape:connector-curvature="0" class="st1" d="M103.9,912.7l-0.6-0.8l1.6-0.2c1.9-0.2,6.7-1.6,9.9-2.9
		c5-1.9,8.6-4.7,10.1-7.6c0.7-1.3,0.7-1.9,0.7-5.4c0-2.1-0.2-5.3-0.4-7.1c-0.4-2.6-0.4-3.6-0.1-5.4c0.4-2.4,1.9-5.8,3.2-7.3
		c1.1-1.3,3.9-3.1,6-3.9c2.1-0.7,4.3-1.9,5.7-3c1.2-0.9,5.4-6.4,6.5-8.6c0.7-1.4,1.4-2,5.9-5.4l5.1-3.8l2.1-0.2
		c1.1-0.1,2.4-0.3,2.8-0.4c0.5-0.1-0.3,0.8-2.9,3.4c-3,2.9-4.1,3.8-6.1,4.9c-4.4,2.3-5,2.9-6.2,6.8c-0.6,2-0.9,2.3-2.6,3.9
		c-1.1,0.9-2.1,2.1-2.4,2.5c-0.7,1.3-0.5,3.7,0.6,8.1c0.6,2.5,1,4.9,1,6v1.9l-2.6,2.2c-1.4,1.2-5.3,4.8-8.5,8.1
		c-3.9,3.9-6.6,6.4-8,7.3c-4.2,2.7-11.5,5.8-17.3,7.3C104.5,913.7,104.6,913.7,103.9,912.7L103.9,912.7z"/>
	<path id="10-2" inkscape:connector-curvature="0" sodipodi:nodetypes="ssssscs" class="st2" d="M36.3,806.6
		c-4.6-6.7-4.7-11,0.2-15.7c2.6-2.5,13.7-8.7,16.9-9.7c1.3-0.4,0.6,0.4-1.6,3c-5.5,6.6-10.2,15.2-11.8,21.3c-0.5,1.9-1,3.6-1.1,3.7
		C38.9,809.4,37.4,808.2,36.3,806.6z"/>
	<path id="10-1" inkscape:connector-curvature="0" class="st2" d="M45.7,905.5c-5.5-2.4-10.8-6.5-12-9.2
		c-1.1-2.7-0.4-5.8,2.1-8.7c0.9-1.1,1.1-1.2,1.3-0.7c1.2,3.3,2.2,5.6,3.8,8.4c2,3.6,6,9.4,7,10.3c0.6,0.5,0.8,1,0.4,1
		C48.1,906.5,47,906,45.7,905.5z"/>
	<path id="946d" inkscape:connector-curvature="0" class="st2" d="M77.1,877.8c-0.7-0.1-4.6-0.6-8.8-1
		c-7.5-0.8-11.6-1.6-11.9-2.4c-0.1-0.4,4.4-1.9,8.6-2.8c3.6-0.8,9.4-1.1,11.7-0.6c2,0.4,3.9,1.5,4.6,2.7s1,3.8,0.4,4.2
		C81.2,878.1,78.7,878.1,77.1,877.8L77.1,877.8z"/>
	<path id="46d" inkscape:connector-curvature="0" class="st2" d="M41.9,885.9l-1.2-0.5l1.1-0.9c1.4-1.2,5.7-3,12-5
		c8.1-2.6,7.1-2.5,14.6-1.7c3.6,0.4,7,0.8,7.6,0.9c1,0.2,1,0.2-0.6,0.4c-0.9,0.1-4.2,0.3-7.3,0.5c-11.6,0.7-17.2,2.1-22,5.7
		C44.4,886.6,43.7,886.7,41.9,885.9L41.9,885.9L41.9,885.9z"/>
	<path id="8m" inkscape:connector-curvature="0" class="st2" d="M92,880c-1.7-0.2-4.8-1-5.9-1.4c-1-0.4-1.1-0.5-0.9-1.4
		c0.4-1.9,1.1-3.7,2-5.1c1-1.6,1.1-1.6,4-0.1c3.2,1.7,5.3,4.4,5.3,6.8c0,0.9-0.1,1.1-0.7,1.3C95,880.2,93.6,880.2,92,880L92,880z"/>
	<path id="F1-1" inkscape:connector-curvature="0" class="st2" d="M108.2,892.8c-1.9-1-2.3-3.6-1.2-6.7c1.1-2.9,5.5-11.7,7.3-14.4
		c2.1-3.3,2.4-4.1,3-8.5c0.3-1.9,0.7-4.2,1-5l0.5-1.5l1.8,0.1c1.5,0.1,1.9,0,2-0.4c0.3-0.7-0.3-1-1.9-1h-1.4l-0.2-1.5
		c-0.1-0.9-0.2-1.6-0.1-1.6c0,0,6.8-0.1,14.9-0.2l14.9-0.1l0.7,1.3c0.4,0.7,0.7,1.5,0.7,1.7s-1,0.8-2.1,1.4l-2.2,1l-0.3-0.7
		l-0.3-0.7l-1.2,0.6c-1.6,0.7-10.4,6.3-13.2,8.3c-2.7,1.9-5.2,4.4-6.5,6.4c-0.5,0.8-1.7,2.1-2.5,2.9c-0.9,0.8-2,2.3-2.8,3.6
		c-0.7,1.2-2,3.6-2.9,5.3s-2.4,3.9-3.2,4.8c-0.8,0.9-1.8,2.4-2.4,3.3C109.6,893.2,109.3,893.4,108.2,892.8L108.2,892.8L108.2,892.8z
		"/>
	<path id="F1-2" inkscape:connector-curvature="0" class="st2" d="M139.3,848.3c-0.5-0.1-3.8-0.9-7.5-1.7c-4.6-1.1-7.5-1.7-9.7-1.8
		l-3.1-0.2l-0.6-1.8c-0.4-1-0.9-3-1.3-4.4c-0.6-2.4-0.6-2.9-0.3-5.3c0.5-4.1,2.1-6.8,5.1-8.6c1.3-0.7,1.6-0.8,5.4-0.9
		c2.2,0,5.3-0.1,6.9-0.1l2.8-0.1l-0.3,1.8c-0.4,2.5-0.1,6,0.7,7.9c0.8,2,2.2,3.5,4.8,4.7c2.6,1.3,3.9,2.3,4.4,3.5
		c0.4,1,0.6,4.5,0.2,5.7C146.4,848.2,142.9,848.8,139.3,848.3L139.3,848.3z"/>
	<path id="F2-2" inkscape:connector-curvature="0" class="st2" d="M114.4,844.7c-4.8-0.4-6.9-0.9-19.2-4.3c-3.8-1-7.9-2.2-9.1-2.5
		l-2.2-0.6l0.1-1c0.1-1.9,2.4-3.3,5.4-3.3c1.8,0,4.6,0.4,12.4,2c4.6,0.9,8,1.4,10.3,1.5l3.5,0.2l0.4,1.6c0.2,0.9,0.7,2.8,1.2,4.1
		c0.7,2.2,0.8,2.5,0.3,2.5C117.2,844.9,115.8,844.8,114.4,844.7L114.4,844.7L114.4,844.7z"/>
	<path id="24c" inkscape:connector-curvature="0" class="st2" d="M71,816.3c-11.1-3.8-12.8-4.5-15.7-6c-2.5-1.3-3.3-1.9-4-3
		c-0.5-0.8-0.5-0.9,0.1-1.6c0.3-0.4,1.4-1.2,2.5-1.8c1.5-0.8,2.2-1,3.7-1c3.4,0,8.6,2.2,17.3,7.2c2.4,1.4,4.9,2.8,5.6,3.2
		s1.3,0.8,1.3,1c0,0.3-1.7-0.1-6.1-1.3c-5.2-1.4-6.2-1.6-6.4-1.2c-0.1,0.2-0.3,0.6-0.3,0.7c0,0.2,2.4,1,5.4,1.8s5.9,1.6,6.4,1.7
		c1,0.3,1.2,0.7,0.8,2.6c-0.1,0.6-0.4,0.9-0.7,0.9C80.4,819.6,76.1,818.1,71,816.3L71,816.3z"/>
	<path id="F7" inkscape:connector-curvature="0" class="st2" d="M84.5,865.6c-0.8-1.3-2.4-1.9-6.1-2c-2.4-0.1-3.8,0-5.9,0.5
		c-3.9,0.9-8,0.7-8.6-0.3c-0.3-0.5,4.3-2.4,10.6-4.5c7.3-2.4,7.4-2.5,7.6-1.8c0.5,1.5,1.3,3.1,3,5.7c1,1.6,1.8,3,1.7,3.1
		c-0.1,0.1-0.5,0.2-1,0.2C85.3,866.5,84.9,866.2,84.5,865.6L84.5,865.6z"/>
	<path id="F2-1" inkscape:connector-curvature="0" class="st2" d="M100.8,872.4c-0.6-0.1-1.6-0.4-2.2-0.6l-1.2-0.3l0.7-0.7
		c0.4-0.4,1.9-1.3,3.4-2.1c2.3-1.2,3.2-1.5,5.5-1.7c2.6-0.3,2.7-0.4,2.7-1c0-0.7,0-0.7-2.2-0.5c-1.2,0.1-2.8,0.4-3.7,0.6
		c-1.8,0.5-5.9,2.8-7.2,4l-0.9,0.9l-1.8-0.9c-3.3-1.7-5.5-3.1-5.8-3.9c-0.2-0.4-1.1-2-2.1-3.4c-2.7-4.1-3.4-5.8-2.8-6.2
		c0.4-0.3,7.4-1.7,10.8-2.3c6.2-1,12.1-1.6,19.9-2l4-0.2v1.6v1.6l-4.1,0.8c-2.3,0.4-4.3,0.8-4.6,0.8c-0.4,0-0.5,0.2-0.5,0.8
		c0,0.7,0,0.8,1.6,0.6c0.9-0.1,2.8-0.5,4.2-0.8c1.5-0.3,2.7-0.5,2.8-0.4c0.3,0.3-0.3,1.4-0.7,1.4c-0.8,0-2.2,1.5-3.4,3.9
		c-2.1,3.9-5.2,6.9-7.1,6.9c-1,0-2.6,1-3.5,2.4C101.9,872.5,101.8,872.6,100.8,872.4L100.8,872.4z"/>
	<path id="8B" inkscape:connector-curvature="0" class="st2" d="M94.4,872.4c-0.2-0.2-0.5-0.4-0.8-0.6
		c-3.3-2.3-8.1-3.8-14.5-4.3c-1.5-0.1-5.7-0.3-5.9-0.2c-0.1,0-0.1,0.1-0.1,0.7v0.6h2.2c2.1,0,3.9,0.2,5.7,0.4
		c1.3,0.2,1.3,0.2,0.5,0.5c-0.4,0.2-1.1,0.5-1.6,0.7l-0.9,0.4l-0.8-0.3c-1.5-0.5-2.8-0.7-5.2-0.7c-2.2,0-4.3,0.2-7,0.7l-1.1,0.2
		l-0.4-0.4c-0.2-0.2-0.8-0.8-1.3-1.3c-1.3-1.5-2.2-2-3.6-2.4l-0.4-0.1L60,866c0.3-0.2,1-0.7,1.6-1.1l1-0.7l0.7,0.4
		c1.3,0.7,2.8,1.1,4.3,1.1c1.4,0.1,2.5-0.1,6.1-0.9c2-0.5,2.4-0.5,3.7-0.5c1.7,0,3.5,0.2,4.5,0.5c1.1,0.3,1.5,0.6,1.9,1.3
		c0.2,0.3,0.4,0.6,0.5,0.7c0.4,0.4,1.2,0.6,2.4,0.5l0.7-0.1l1.1,0.7c2,1.3,4.9,2.9,6.3,3.5c0.4,0.2,0.7,0.3,0.7,0.3
		s-0.5,0.9-0.6,0.9C94.8,872.7,94.6,872.5,94.4,872.4L94.4,872.4L94.4,872.4z"/>
	<path id="5-1" inkscape:connector-curvature="0" class="st2" d="M148.3,865.5c0.2-1.2,1-2.7,2-3.5c0.4-0.4,1.8-1.2,3-1.9
		c3-1.5,3.6-2,6-4.4c1.2-1.2,3-2.9,4.1-3.8l2-1.7l3.1,0.1c1.9,0.1,4.3,0.3,6.2,0.7c1.7,0.3,5.1,0.7,7.6,0.9c4.9,0.4,8.1,0.8,9.3,1.2
		l0.8,0.3l-0.7,0.7c-0.8,0.8-1.8,1.1-4.2,1.1c-0.9,0-3.8,0.2-6.4,0.5c-9.9,1.1-11.9,1.6-18.6,4.6c-3.8,1.8-4.9,2.2-8.5,3.2
		c-2.2,0.6-3.3,1.1-4.8,2.2l-1,0.8L148.3,865.5L148.3,865.5L148.3,865.5z"/>
	<path id="5-2" inkscape:connector-curvature="0" class="st2" d="M175.4,842c0.2-0.7,0.5-1.4,0.6-1.6c0.3-0.4,4.1-2,6.2-2.6
		c1.8-0.6,2.5-0.7,5.9-0.9c2.1-0.1,3.1-0.3,3.6-0.5c0.4-0.2,1.3-0.4,2-0.5c1.1-0.1,1.4,0,1.8,0.3l0.5,0.4l-1.1,1
		c-1.9,1.8-5.7,3.5-10,4.4c-2.7,0.6-6.4,1.1-8.3,1.1H175L175.4,842L175.4,842L175.4,842z"/>
	<path id="7m" inkscape:connector-curvature="0" class="st2" d="M174.7,837.8c-1.4-1-4.1-3.7-8.7-8.7c-3.6-3.9-7-6.4-10.2-7.8
		c-1.5-0.6-1.6-0.8-1.3-1.2c0.3-0.5,7.8,0.8,10.1,1.9c2.9,1.3,5,3.2,8.4,7.6c2.5,3.2,4.4,5.2,5.5,5.8c0.7,0.3,0.7,0.3,1-0.3
		s0.3-0.6-0.3-1c-1.1-0.7-2.7-2.3-5-5.3c-4-5.2-6.9-7.5-10.7-8.7c-1-0.3-3.3-0.8-5.2-1.1s-3.5-0.6-3.5-0.6s0.1-0.4,0.3-0.9
		c0.9-2.2,1.5-2.1,7.1,0.5c2.4,1.1,5.3,2.4,6.4,2.8c2.2,0.8,5.8,1.8,6.6,1.8c0.6,0,2.3-2.6,4.8-7.1c5-9.1,6.7-11.7,8.3-13l0.8-0.6
		h5.5c6.1,0,7.9,0.2,10,1.2c1.5,0.7,2.6,1.8,3.2,3.2c0.6,1.3,0.4,4.6-0.3,6.7c-1.4,4.1-5.2,10-9.2,14.6c-0.7,0.8-1.7,2.1-2.4,3
		c-1.1,1.5-1.2,1.8-1.2,2.7c0,1.2-0.2,1.3-1.8,1.6c-0.6,0.1-1.4,0.3-1.8,0.5c-0.5,0.3-1.5,0.4-3.5,0.5c-3.4,0.1-5.2,0.5-8.5,1.9
		c-1.4,0.6-2.6,1-2.7,1C176.2,838.8,175.5,838.3,174.7,837.8L174.7,837.8L174.7,837.8z"/>
	<path id="PBr" inkscape:connector-curvature="0" class="st2" d="M104.2,948.3c1.3-2.6,1.7-4.1,1.9-8.6c0.3-4.3,0.6-5.9,1.4-7
		c0.6-0.8,0.7-0.8,5.7-2.4c4.8-1.5,8.7-3.7,11.4-6.4c1.4-1.4,2.7-3.1,4.4-6.3c1-1.7,1.7-2.3,2.3-1.8c0.4,0.4,0.7,1.4,1,4
		c0.1,1.2,0.3,2.4,0.4,2.5c0.2,0.4,0.1,0.7-2.6,5.2c-1.6,2.7-2.4,3.7-3,4.3c-1.2,0.9-4.2,2.5-6.6,3.4c-3,1.2-4.6,2.1-5.6,3.1
		c-0.9,1-1.5,2.6-1.5,3.9c0,0.6-0.3,1-1.8,2.7c-2.6,2.9-4.2,3.8-6.7,4.2l-1,0.1L104.2,948.3L104.2,948.3L104.2,948.3z"/>
	<path id="STPr" inkscape:connector-curvature="0" class="st2" d="M115.1,942.8c-0.8-0.3-0.5-2.1,0.5-3.5c0.7-0.9,1.9-1.6,5.5-3
		c1.7-0.7,3.5-1.5,4.2-1.9s1.2-0.6,1.3-0.6c0,0,0,0.6,0,1.3l-0.1,1.2l-2,1.9c-2.1,2-4.2,3.5-5.8,4.2
		C117.4,942.9,115.8,943.1,115.1,942.8L115.1,942.8z"/>
	<path id="STPi" inkscape:connector-curvature="0" class="st2" d="M127.9,936.2c-0.4-0.4-0.3-1.5,0.3-2.8c0.3-0.6,1.6-3,3-5.2
		c2.9-4.8,3.7-6.4,5.1-9.8c1.3-3.3,4.2-9.2,5.7-11.6c3.5-5.5,7.7-9.8,11.7-11.8c1.4-0.7,4.3-1.8,4.8-1.8c0.1,0-0.2,0.5-0.8,1.2
		c-1.3,1.5-2,2.7-2.5,4.8c-0.4,1.6-0.4,1.6-0.1,2.4c0.3,0.6,0.6,0.8,1.1,1c0.5,0.1,0.9,0.5,1.3,1.1c0.5,0.9,0.5,1,0.3,2.4
		c-0.5,3.1-2.8,6.7-7.6,12c-1.4,1.5-3.2,3.5-4,4.5c-0.9,1-2.1,2.4-2.7,3c-2.2,2.3-7.8,6.6-11.7,8.8
		C129,936.2,128.2,936.5,127.9,936.2L127.9,936.2L127.9,936.2z"/>
	<path id="STPc" inkscape:connector-curvature="0" sodipodi:nodetypes="sccssscssss" class="st2" d="M156.2,901.1
		c-0.2-0.2-0.2-0.6,0.2-1.8c0.3-0.8,0.6-1.8,0.8-2.1c0.6-1.2,3.5-4.2,5-5.2c1.6-1,5.8-4.3,7.2-5.5c0.4-0.4,1.1-1.1,1.4-1.6
		c0.6-0.8,1-1.3,4-2.4c0.1,0-0.2,0.7-0.9,1.3s-2.9,3.3-4.9,5.9c-4.3,5.3-8.2,9.3-10.4,10.7C156.9,901.5,156.6,901.6,156.2,901.1
		L156.2,901.1z"/>
	<text id="text6758-3" transform="matrix(1 0 0 1 223.96 900.6059)" class="st3 st4 st5">V1</text>
	<text id="text6760-2" transform="matrix(1 0 0 1 195.54 917.9267)" class="st3 st4 st5">V2</text>
	<text id="text6812-2" transform="matrix(1 0 0 1 169.6045 891.7939)" class="st3 st4 st5">MT</text>
	<text id="text6762-2" transform="matrix(1 0 0 1 173.606 911.477)" class="st3 st4 st5">V4</text>
	<text id="text6774-0" transform="matrix(1 0 0 1 211.2251 859.1205)" class="st3 st4 st5">DP</text>
	<text id="text6758-3-3" transform="matrix(1 0 0 1 225.3022 798.6454)" class="st3 st4 st5">V1</text>
	<text id="text6760-2-3" transform="matrix(1 0 0 1 189.7969 779.7499)" class="st3 st4 st5">V2</text>
	<text id="text6814-9" transform="matrix(1 0 0 1 185.1318 820.2319)" class="st3 st4 st5">7m</text>
	<text id="text6800-1" transform="matrix(1 0 0 1 87.5117 913.2045)" class="st3 st4 st5">ProM</text>
	<text id="text6802-7" transform="matrix(1 0 0 1 85.7188 887.1479)" class="st3 st4 st5">8l</text>
	<text id="text6770-6" transform="matrix(1 0 0 1 85.3501 877.684)" class="st3 st4 st5">8m</text>
	<text id="text6806-1" transform="matrix(1 0 0 1 19.1836 877.0478)" class="st3 st4 st5">46d</text>
	<text id="text6766-6" transform="matrix(1 0 0 1 56.5342 877.6401)" class="st3 st4 st5">9/46d</text>
	<text id="text6804-4" transform="matrix(1 0 0 1 57.1699 890.8661)" class="st3 st4 st5">9/46v</text>
	<text id="text6810-4" transform="matrix(1 0 0 1 32.1357 900.5092)" class="st3 st4 st5">10</text>
	<text id="text6810-5" transform="matrix(1 0 0 1 31.0225 801.414)" class="st3 st4 st5">10</text>
	<text id="text6792-2" transform="matrix(1 0 0 1 55.1816 811.9941)" class="st3 st4 st5">24c</text>
	<text id="text6794-4" transform="matrix(1 0 0 1 120.6978 861.0502)" class="st3 st4 st5">F1</text>
	<text id="text6794-3" transform="matrix(1 0 0 1 120.1406 842.122)" class="st3 st4 st5">F1</text>
	<text id="text6796-5" transform="matrix(1 0 0 1 92.418 863.602)" class="st3 st4 st5">F2</text>
	<text id="text6798-1" transform="matrix(1 0 0 1 74.1338 865.9477)" class="st3 st4 st5">F7</text>
	<text id="text6808-6" transform="matrix(1 0 0 1 39.6006 862.9379)" class="st6 st4 st5">8B</text>
	<text id="text6778-8" transform="matrix(1 0 0 1 166.9482 858.1284)" class="st3 st4 st5">5</text>
	<text id="text6776-7" transform="matrix(1 0 0 1 129.2256 888.8862)" class="st3 st4 st5">2</text>
	<text id="text6768-5" transform="matrix(1 0 0 1 89.8359 899.936)" class="st3 st4 st5">F5</text>
	<path id="path8020" inkscape:connector-curvature="0" class="st7" d="M53.6,858.9c10.3,7.6,10.8,7.9,10.8,7.9l0,0"/>
	<text id="text6764-2" transform="matrix(1 0 0 1 160.1914 930.5102)" class="st3 st4 st5">TEO</text>
	<text transform="matrix(1 0 0 1 140.1348 943.2861)" class="st3 st4 st5">TEpd</text>
	<text id="text6772-4" transform="matrix(1 0 0 1 165.2192 872.246)" class="st3 st4 st5">7A</text>
	<text id="text6780-2" transform="matrix(1 0 0 1 142.6807 880.1196)" class="st3 st4 st5">7B</text>
	<path id="path8020-3" inkscape:connector-curvature="0" class="st7" d="M39,873.9c10.3,7.6,10.8,7.9,10.8,7.9l0,0"/>
	<path id="path8020-4" inkscape:connector-curvature="0" class="st7" d="M210.2,855c-8.4,9.7-8.7,10.1-8.7,10.1l0,0"/>
	<text id="text6784-3" transform="matrix(1 0 0 1 139.2393 913.9741)" class="st3 st4 st5">STPi</text>
	<text id="text6782-1" transform="matrix(1 0 0 1 102.8662 962.3935)" class="st3 st4 st5">STPr</text>
	<path id="path8020-33" inkscape:connector-curvature="0" class="st7" d="M119.7,939.7c-2.7,12.5-2.8,13.1-2.8,13.1l0,0"/>
	<text id="text6788-6" transform="matrix(1 0 0 1 106.8745 936.412)" class="st3 st4 st5">PBr</text>
	<text id="text6786-3" transform="matrix(1 0 0 1 149.7021 902.164)" class="st3 st4 st5">STPc</text>
</g>
</svg>
